<svg width="403" height="125" viewBox="0 0 403 125" fill="none" xmlns="http://www.w3.org/2000/svg">
<path d="M4.32 96.384V85.44L13.824 84.96V39.84L4.32 39.36V28.416L20.64 29.184L36.96 28.416V39.36L27.456 39.84V84.96L36.96 85.44V96.384L20.64 95.616L4.32 96.384ZM46.242 96V42.24H85.218L95.778 52.8V96H82.146V54.144H59.874V96H46.242ZM105.773 33.6L119.405 28.8V44.16H140.141V55.68H119.405V84.48H140.141V96H116.333L105.773 85.44V33.6ZM146.351 85.824V52.416L156.527 42.24H194.351V72.384H159.983V84.48H192.431V96H156.527L146.351 85.824ZM159.983 64.896L182.447 63.936V52.992H159.983V64.896ZM203.648 96V28.8H217.28V96H203.648Z" fill="#303030"/>
<path d="M347.992 109.44V42.24H387.256L398.2 53.184V85.056L387.256 96H361.624V109.44H347.992ZM384.568 53.76H361.624V84.48H384.568V53.76Z" fill="#303030"/>
<path d="M271.464 83.6667C266.51 87.9796 260.429 91 253.531 91C241.088 91 231 81.1458 231 69C231 56.8542 241.088 47 253.531 47C271.464 47 282.5 69 282.5 69C282.5 69 293.536 91 311.469 91C323.912 91 334 81.1458 334 69C334 56.8542 323.912 47 311.469 47C304.716 47 298.442 50.151 293.536 54.3333" stroke="#7F22FE" stroke-width="14" stroke-miterlimit="10" stroke-linecap="round"/>
</svg>
